<svg width="24" height="24" viewBox="0 0 24 24" fill="none" xmlns="http://www.w3.org/2000/svg">
<path d="M0 5.45467C0 4.008 0.574686 2.62058 1.59763 1.59763C2.62058 0.574686 4.008 0 5.45467 0L18.5453 0C19.992 0 21.3794 0.574686 22.4024 1.59763C23.4253 2.62058 24 4.008 24 5.45467V18.5453C24 19.992 23.4253 21.3794 22.4024 22.4024C21.3794 23.4253 19.992 24 18.5453 24H5.45467C4.008 24 2.62058 23.4253 1.59763 22.4024C0.574686 21.3794 0 19.992 0 18.5453L0 5.45467ZM12.8807 5.76133C12.8807 6.36667 13.3713 6.85733 13.976 6.85733H16.714C17.3193 6.85733 17.8093 7.34733 17.8093 7.95267V10.6907C17.8093 10.9812 17.9247 11.2598 18.1301 11.4652C18.3356 11.6706 18.6142 11.786 18.9047 11.786C19.1952 11.786 19.4738 11.6706 19.6792 11.4652C19.8846 11.2598 20 10.9812 20 10.6907V7.95267C20 7.08117 19.6538 6.24536 19.0376 5.62911C18.4213 5.01287 17.5855 4.66667 16.714 4.66667H13.976C13.3713 4.66667 12.8807 5.15733 12.8807 5.762V5.76133ZM5.762 12.882C5.15733 12.882 4.66667 13.372 4.66667 13.9767V16.7147C4.66684 17.5861 5.01312 18.4217 5.62935 19.0378C6.24557 19.6539 7.08128 20 7.95267 20H10.6907C10.9812 20 11.2598 19.8846 11.4652 19.6792C11.6706 19.4738 11.786 19.1952 11.786 18.9047C11.786 18.6142 11.6706 18.3356 11.4652 18.1301C11.2598 17.9247 10.9812 17.8093 10.6907 17.8093H7.95267C7.66217 17.8093 7.38356 17.6939 7.17815 17.4885C6.97273 17.2831 6.85733 17.0045 6.85733 16.714V13.976C6.85733 13.3713 6.36667 12.8807 5.762 12.8807V12.882Z" fill="black"/>
</svg>
