<svg width="14" height="14" viewBox="0 0 14 14" fill="none" xmlns="http://www.w3.org/2000/svg">
<g clip-path="url(#clip0_649_3735)">
<path d="M2.92746 6.99994C2.92746 6.55544 3.00329 6.12902 3.13746 5.72944L0.78196 3.96777C0.308701 4.90838 0.0629379 5.94698 0.0644602 6.99994C0.0644602 8.08961 0.322294 9.11744 0.780794 10.0298L3.13513 8.26519C2.99785 7.85747 2.92771 7.43015 2.92746 6.99994Z" fill="#FBBC05"/>
<path d="M7.06375 2.95576C8.04958 2.95576 8.94033 3.2976 9.64033 3.8576L11.6768 1.86668C10.436 0.809095 8.84525 0.155762 7.06375 0.155762C4.29758 0.155762 1.91992 1.70451 0.78125 3.96785L3.13792 5.72951C3.68042 4.11601 5.22742 2.95576 7.06375 2.95576Z" fill="#EA4335"/>
<path d="M7.06375 11.0443C5.22683 11.0443 3.67983 9.88401 3.13675 8.27051L0.78125 10.0322C1.91933 12.2955 4.297 13.8443 7.06375 13.8443C8.77058 13.8443 10.4004 13.251 11.6243 12.1386L9.38775 10.4458C8.75717 10.8348 7.96267 11.0443 7.06317 11.0443" fill="#34A853"/>
<path d="M13.7456 7.00011C13.7456 6.59586 13.6814 6.16011 13.5863 5.75586H7.06348V8.40011H10.8178C10.6306 9.30194 10.1196 9.99494 9.38864 10.4459L11.6246 12.1387C12.9096 10.9709 13.7456 9.23136 13.7456 7.00011Z" fill="#4285F4"/>
</g>
<defs>
<clipPath id="clip0_649_3735">
<rect width="14" height="14" fill="white"/>
</clipPath>
</defs>
</svg>
