<svg width="14" height="14" viewBox="0 0 14 14" fill="none" xmlns="http://www.w3.org/2000/svg">
<path d="M12.6105 0.402664L0.876451 4.94C0.728326 4.99733 0.600621 5.09747 0.509605 5.22764C0.418588 5.35781 0.368381 5.51212 0.365377 5.67093C0.362374 5.82974 0.406712 5.98584 0.492742 6.11936C0.578772 6.25288 0.7026 6.35777 0.848451 6.42066L5.58845 8.46066L7.63645 13.21C7.69937 13.356 7.80437 13.48 7.93805 13.566C8.07173 13.6521 8.22802 13.6964 8.38698 13.6932C8.54594 13.6901 8.70035 13.6397 8.83052 13.5484C8.96068 13.4571 9.06069 13.3291 9.11778 13.1807L13.6458 1.43733C13.7014 1.29277 13.7138 1.13517 13.6816 0.983672C13.6494 0.832172 13.5739 0.693283 13.4643 0.583866C13.3546 0.474449 13.2156 0.399209 13.064 0.36728C12.9125 0.335351 12.7549 0.348106 12.6105 0.403997V0.402664ZM11.9678 2.08066L8.34312 11.4813L6.81245 7.93266L6.75645 7.818C6.61339 7.55804 6.3877 7.35323 6.11512 7.236L2.57512 5.712L11.9685 2.08066H11.9678Z" fill="black"/>
</svg>
