<svg width="24" height="24" viewBox="0 0 24 24" fill="none" xmlns="http://www.w3.org/2000/svg">
<g clip-path="url(#clip0_560_2981)">
<path d="M16.6254 1.58574C16.5161 0.32571 15.1999 -0.391572 14.0799 0.224274C9.62851 2.67129 7.1923 5.55343 7.1923 5.55343C7.1923 5.55343 4.47232 6.00047 2.05172 6.52216C1.17822 6.71052 0.485141 7.35221 0.325598 8.21974C0.162828 9.10589 0 10.3927 0 12C0 13.6073 0.162828 14.8941 0.325598 15.7803C0.485141 16.6477 1.17822 17.2895 2.05178 17.4778C4.47232 17.9995 7.1923 18.4465 7.1923 18.4465C7.1923 18.4465 9.62851 21.3287 14.0799 23.7757C15.1999 24.3916 16.5161 23.6743 16.6253 22.4142C16.8032 20.3548 17 16.9545 17 12C17 7.04548 16.8032 3.64523 16.6253 1.58574H16.6254Z" fill="#222222"/>
<path d="M20.4616 7.13381C20.9331 6.86049 21.496 7.03518 21.8925 7.39354C24.7025 9.93549 24.7025 14.0569 21.8925 16.5989C21.4931 16.9601 20.9339 17.1436 20.4608 16.8646C20.2539 16.7423 20.0122 16.5699 19.744 16.327C19.4751 16.084 19.285 15.8658 19.1494 15.6783C18.8414 15.2505 19.0441 14.7442 19.4434 14.383C20.9 13.0648 20.9 10.9276 19.4434 9.6095C19.047 9.25113 18.854 8.74165 19.156 8.3148C19.2909 8.12405 19.4795 7.90438 19.744 7.66551C20.0077 7.42664 20.2509 7.25589 20.4616 7.13381Z" fill="#222222"/>
</g>
<defs>
<clipPath id="clip0_560_2981">
<rect width="24" height="24" fill="white"/>
</clipPath>
</defs>
</svg>
