<svg width="24" height="19" viewBox="0 0 24 19" fill="none" xmlns="http://www.w3.org/2000/svg">
<path d="M22.9527 2.19107C22.2578 1.87961 21.4685 2.09507 20.8691 2.69452L18.5455 5.06889V3.60598C18.5455 1.71161 16.9658 0.272705 15.0709 0.272705H3.56018C1.66582 0.272705 0 1.71161 0 3.60598V15.1173C0 17.0116 1.66582 18.8182 3.56018 18.8182H15.0709C16.9653 18.8182 18.5455 17.0111 18.5455 15.1173V13.9571L20.8969 16.3162C21.3289 16.7482 21.8215 16.9642 22.3489 16.9642C22.5649 16.9642 22.7433 16.9402 22.9587 16.8442C23.6302 16.5562 24 15.9087 24 15.1173V3.91798C24 3.12652 23.6247 2.47852 22.9527 2.19107Z" fill="#41B7EF"/>
</svg>
